<svg width="20" height="20" viewBox="0 0 20 20" fill="none" xmlns="http://www.w3.org/2000/svg">
<path fill-rule="evenodd" clip-rule="evenodd" d="M2 0C0.895431 0 0 0.895431 0 2V6C0 7.10457 0.895431 8 2 8H6C7.10457 8 8 7.10457 8 6V2C8 0.895431 7.10457 0 6 0H2ZM14 12C12.8954 12 12 12.8954 12 14V18C12 19.1046 12.8954 20 14 20H18C19.1046 20 20 19.1046 20 18V14C20 12.8954 19.1046 12 18 12H14ZM8 16C8 18.2091 6.20914 20 4 20C1.79086 20 0 18.2091 0 16C0 13.7909 1.79086 12 4 12C6.20914 12 8 13.7909 8 16ZM12.25 3.25C11.8358 3.25 11.5 3.58579 11.5 4C11.5 4.41421 11.8358 4.75 12.25 4.75H19.25C19.6642 4.75 20 4.41421 20 4C20 3.58579 19.6642 3.25 19.25 3.25H12.25Z" fill="#C4C4C4"/>
</svg>
