<svg width="20" height="21" viewBox="0 0 20 21" fill="none" xmlns="http://www.w3.org/2000/svg">
<path fill-rule="evenodd" clip-rule="evenodd" d="M16.5625 3.75H18C19.1046 3.75 20 4.64543 20 5.75V6.75C20 7.85457 19.1046 8.75 18 8.75H2C0.895431 8.75 0 7.85457 0 6.75V5.75C0 4.64543 0.895431 3.75 2 3.75H3.43747C3.31643 3.44007 3.25 3.10279 3.25 2.75C3.25 1.23122 4.48122 0 6 0C7.67947 0 9.15536 0.871624 10 2.18718C10.8446 0.871622 12.3205 0 14 0C15.5188 0 16.75 1.23122 16.75 2.75C16.75 3.10279 16.6836 3.44007 16.5625 3.75ZM5.24988 3.75H9.09325C8.67147 2.44437 7.44602 1.5 6 1.5C5.30964 1.5 4.75 2.05964 4.75 2.75C4.75 3.1589 4.94634 3.52194 5.24988 3.75ZM14.7501 3.75C15.0537 3.52194 15.25 3.1589 15.25 2.75C15.25 2.05964 14.6904 1.5 14 1.5C12.554 1.5 11.3285 2.44437 10.9067 3.75H14.7501ZM18 10.25H2V18.75C2 19.8546 2.89543 20.75 4 20.75H16C17.1046 20.75 18 19.8546 18 18.75V10.25Z" fill="#C4C4C4"/>
</svg>
